<mxfile host="app.diagrams.net" agent="Mozilla/5.0 (Windows NT 10.0; Win64; x64) AppleWebKit/537.36 (KHTML, like Gecko) Chrome/130.0.0.0 Safari/537.36" version="24.8.4">
  <diagram name="Page-1" id="AKQ2QbHtuJmd1DGJ1gdb">
    <mxGraphModel dx="1674" dy="772" grid="1" gridSize="10" guides="1" tooltips="1" connect="1" arrows="1" fold="1" page="1" pageScale="1" pageWidth="827" pageHeight="1169" math="0" shadow="0">
      <root>
        <mxCell id="0" />
        <mxCell id="1" parent="0" />
        <mxCell id="QkURdqAgRxAKffQmGw_o-3" value="" style="edgeStyle=orthogonalEdgeStyle;rounded=0;orthogonalLoop=1;jettySize=auto;html=1;" parent="1" source="QkURdqAgRxAKffQmGw_o-1" edge="1">
          <mxGeometry relative="1" as="geometry">
            <mxPoint x="414" y="249.9999999999999" as="targetPoint" />
          </mxGeometry>
        </mxCell>
        <mxCell id="QkURdqAgRxAKffQmGw_o-1" value="start" style="ellipse;whiteSpace=wrap;html=1;" parent="1" vertex="1">
          <mxGeometry x="354" y="80" width="120" height="80" as="geometry" />
        </mxCell>
        <mxCell id="QkURdqAgRxAKffQmGw_o-5" value="" style="edgeStyle=orthogonalEdgeStyle;rounded=0;orthogonalLoop=1;jettySize=auto;html=1;" parent="1" target="QkURdqAgRxAKffQmGw_o-4" edge="1">
          <mxGeometry relative="1" as="geometry">
            <mxPoint x="414" y="309.9999999999999" as="sourcePoint" />
          </mxGeometry>
        </mxCell>
        <mxCell id="QkURdqAgRxAKffQmGw_o-7" value="" style="edgeStyle=orthogonalEdgeStyle;rounded=0;orthogonalLoop=1;jettySize=auto;html=1;" parent="1" source="QkURdqAgRxAKffQmGw_o-4" edge="1">
          <mxGeometry relative="1" as="geometry">
            <mxPoint x="414" y="530" as="targetPoint" />
          </mxGeometry>
        </mxCell>
        <mxCell id="QkURdqAgRxAKffQmGw_o-4" value="cin &amp;gt;&amp;gt; n;" style="shape=parallelogram;perimeter=parallelogramPerimeter;whiteSpace=wrap;html=1;fixedSize=1;" parent="1" vertex="1">
          <mxGeometry x="354" y="390" width="120" height="60" as="geometry" />
        </mxCell>
        <mxCell id="QkURdqAgRxAKffQmGw_o-9" value="" style="edgeStyle=orthogonalEdgeStyle;rounded=0;orthogonalLoop=1;jettySize=auto;html=1;" parent="1" target="QkURdqAgRxAKffQmGw_o-8" edge="1">
          <mxGeometry relative="1" as="geometry">
            <mxPoint x="414" y="600" as="sourcePoint" />
          </mxGeometry>
        </mxCell>
        <mxCell id="QkURdqAgRxAKffQmGw_o-11" value="" style="edgeStyle=orthogonalEdgeStyle;rounded=0;orthogonalLoop=1;jettySize=auto;html=1;" parent="1" source="QkURdqAgRxAKffQmGw_o-8" target="QkURdqAgRxAKffQmGw_o-10" edge="1">
          <mxGeometry relative="1" as="geometry" />
        </mxCell>
        <mxCell id="QkURdqAgRxAKffQmGw_o-8" value="printf(&quot;Sum = %.4lf&quot; , sum);" style="shape=parallelogram;perimeter=parallelogramPerimeter;whiteSpace=wrap;html=1;fixedSize=1;" parent="1" vertex="1">
          <mxGeometry x="326" y="685" width="176" height="60" as="geometry" />
        </mxCell>
        <mxCell id="QkURdqAgRxAKffQmGw_o-10" value="end" style="rounded=1;whiteSpace=wrap;html=1;" parent="1" vertex="1">
          <mxGeometry x="354" y="825" width="120" height="60" as="geometry" />
        </mxCell>
        <mxCell id="QkURdqAgRxAKffQmGw_o-15" value="" style="edgeStyle=orthogonalEdgeStyle;rounded=0;orthogonalLoop=1;jettySize=auto;html=1;" parent="1" edge="1">
          <mxGeometry relative="1" as="geometry">
            <mxPoint x="710" y="170" as="sourcePoint" />
            <mxPoint x="709.9999999999998" y="249.9999999999999" as="targetPoint" />
          </mxGeometry>
        </mxCell>
        <mxCell id="QkURdqAgRxAKffQmGw_o-17" value="" style="edgeStyle=orthogonalEdgeStyle;rounded=0;orthogonalLoop=1;jettySize=auto;html=1;" parent="1" target="QkURdqAgRxAKffQmGw_o-16" edge="1">
          <mxGeometry relative="1" as="geometry">
            <mxPoint x="709.9999999999998" y="309.9999999999999" as="sourcePoint" />
          </mxGeometry>
        </mxCell>
        <mxCell id="QkURdqAgRxAKffQmGw_o-19" value="" style="edgeStyle=orthogonalEdgeStyle;rounded=0;orthogonalLoop=1;jettySize=auto;html=1;" parent="1" source="QkURdqAgRxAKffQmGw_o-16" edge="1">
          <mxGeometry relative="1" as="geometry">
            <mxPoint x="710" y="530" as="targetPoint" />
          </mxGeometry>
        </mxCell>
        <mxCell id="QkURdqAgRxAKffQmGw_o-16" value="i &amp;lt; n" style="rhombus;whiteSpace=wrap;html=1;" parent="1" vertex="1">
          <mxGeometry x="670" y="370" width="80" height="80" as="geometry" />
        </mxCell>
        <mxCell id="QkURdqAgRxAKffQmGw_o-21" value="" style="edgeStyle=orthogonalEdgeStyle;rounded=0;orthogonalLoop=1;jettySize=auto;html=1;" parent="1" target="QkURdqAgRxAKffQmGw_o-20" edge="1">
          <mxGeometry relative="1" as="geometry">
            <mxPoint x="710" y="590" as="sourcePoint" />
          </mxGeometry>
        </mxCell>
        <mxCell id="QkURdqAgRxAKffQmGw_o-20" value="return result;" style="rounded=1;whiteSpace=wrap;html=1;" parent="1" vertex="1">
          <mxGeometry x="650" y="685" width="120" height="60" as="geometry" />
        </mxCell>
        <mxCell id="TLVPZt1uZ6LLcyg8x3An-1" value="&#xa;&lt;span style=&quot;color: rgb(0, 0, 0); font-family: Helvetica; font-size: 12px; font-style: normal; font-variant-ligatures: normal; font-variant-caps: normal; font-weight: 400; letter-spacing: normal; orphans: 2; text-align: center; text-indent: 0px; text-transform: none; widows: 2; word-spacing: 0px; -webkit-text-stroke-width: 0px; white-space: normal; background-color: rgb(251, 251, 251); text-decoration-thickness: initial; text-decoration-style: initial; text-decoration-color: initial; display: inline !important; float: none;&quot;&gt;int n;&lt;/span&gt;&lt;div style=&quot;forced-color-adjust: none; color: rgb(0, 0, 0); font-family: Helvetica; font-size: 12px; font-style: normal; font-variant-ligatures: normal; font-variant-caps: normal; font-weight: 400; letter-spacing: normal; orphans: 2; text-align: center; text-indent: 0px; text-transform: none; widows: 2; word-spacing: 0px; -webkit-text-stroke-width: 0px; white-space: normal; background-color: rgb(251, 251, 251); text-decoration-thickness: initial; text-decoration-style: initial; text-decoration-color: initial;&quot;&gt;double sum = 0;&lt;/div&gt;&#xa;&#xa;" style="rounded=0;whiteSpace=wrap;html=1;" vertex="1" parent="1">
          <mxGeometry x="354" y="250" width="120" height="60" as="geometry" />
        </mxCell>
        <mxCell id="TLVPZt1uZ6LLcyg8x3An-2" value="sum =&amp;nbsp;&lt;i&gt;factorial&amp;nbsp;&lt;/i&gt;( n ) / pow (n , n)" style="rounded=0;whiteSpace=wrap;html=1;" vertex="1" parent="1">
          <mxGeometry x="346" y="530" width="136" height="70" as="geometry" />
        </mxCell>
        <mxCell id="TLVPZt1uZ6LLcyg8x3An-3" value="int result = 1;" style="rounded=0;whiteSpace=wrap;html=1;" vertex="1" parent="1">
          <mxGeometry x="650" y="250" width="120" height="60" as="geometry" />
        </mxCell>
        <mxCell id="TLVPZt1uZ6LLcyg8x3An-4" value="int&amp;nbsp;&lt;i&gt;factorial&amp;nbsp;&lt;/i&gt;(int n)" style="ellipse;whiteSpace=wrap;html=1;" vertex="1" parent="1">
          <mxGeometry x="650" y="90" width="120" height="80" as="geometry" />
        </mxCell>
        <mxCell id="TLVPZt1uZ6LLcyg8x3An-5" value="result *= i;&amp;nbsp;" style="rounded=0;whiteSpace=wrap;html=1;" vertex="1" parent="1">
          <mxGeometry x="650" y="530" width="120" height="60" as="geometry" />
        </mxCell>
      </root>
    </mxGraphModel>
  </diagram>
</mxfile>
